# xmcd
#
# Track frame offsets:
#	150
#	17502
#	34515
#	55746
#	74052
#	87587
#	115695
#	131597
#	147891
#	166408
#	192869
#	217641
#
# Disc length: 3159 seconds
#
# Revision: 3
# Processed by: cddbd v1.5.2PL0 Copyright (c) Steve Scherf et al.
# Submitted via: EasyCDDAExtractor 2010.6.0.0
#
DISCID=a00c550c
DTITLE=Various Artist - Dance Collection 18-Sexy disco
DYEAR=2002
DGENRE=Dance
TTITLE0=French Affair - Sexy
TTITLE1=Samantha Fox - Touch me (I want your body)
TTITLE2=Sueño latino - Sueño latino
TTITLE3=Hot chocolate - You sexy thing
TTITLE4=Andrea true connection - More, more, more
TTITLE5=Rudy - Just take my body
TTITLE6=Art of noise and Tom Jones - Kiss
TTITLE7=Hong Kong syndikat - Too much
TTITLE8=Ramirez - Orgasmico
TTITLE9=Einstein Dr. DJ - Automatik sex
TTITLE10=Latoya Jackson - Sexual feelings
TTITLE11=Barry White - I want you
EXTD=YEAR: 2002
EXTT0=
EXTT1=
EXTT2=
EXTT3=
EXTT4=
EXTT5=
EXTT6=
EXTT7=
EXTT8=
EXTT9=
EXTT10=
EXTT11=
PLAYORDER=
